<svg xmlns="http://www.w3.org/2000/svg" xmlns:xlink="http://www.w3.org/1999/xlink" width="108.02" height="32.482" viewBox="0 0 108.02 32.482">
  <defs>
    <clipPath id="clip-path">
      <rect id="Rectangle_146" data-name="Rectangle 146" width="108.02" height="32.482" fill="none"/>
    </clipPath>
  </defs>
  <g id="Group_664" data-name="Group 664" transform="translate(0 0)">
    <g id="Group_660" data-name="Group 660" transform="translate(0 0)" clip-path="url(#clip-path)">
      <path id="Path_323" data-name="Path 323" d="M37.933,0a17.048,17.048,0,0,0-9.44,2.737,9.655,9.655,0,0,1-8.916.867A14.968,14.968,0,0,0,13.95,2.538C6,2.538,0,8.414,0,16.205A13.541,13.541,0,0,0,13.95,29.944a14.9,14.9,0,0,0,5.632-1.074,9.627,9.627,0,0,1,8.922.868,16.987,16.987,0,0,0,9.429,2.744c9.474,0,16.618-7,16.618-16.283C54.551,6.964,47.407,0,37.933,0" transform="translate(0 0)" fill="#ffe45a"/>
      <path id="Path_324" data-name="Path 324" d="M26.213,24.295H19.286a1.325,1.325,0,0,0-1.325,1.325v.68a1.282,1.282,0,0,0,1.324,1.325l4.189,0a.368.368,0,0,1,.336.516C22.982,30.012,21.035,31.1,18.4,31.1a6.689,6.689,0,0,1-6.788-6.888A6.688,6.688,0,0,1,18.4,17.321a5.343,5.343,0,0,1,5.624,4.3,1.339,1.339,0,0,0,1.354,1.114h.831A1.26,1.26,0,0,0,27.5,21.225a8.9,8.9,0,0,0-9.1-7.284,10.269,10.269,0,1,0,0,20.535c5.452,0,9.26-3.58,9.26-8.706v-.1a1.353,1.353,0,0,0-1.45-1.375" transform="translate(-4.564 -7.968)"/>
      <path id="Path_325" data-name="Path 325" d="M71.5,8.588A12.383,12.383,0,0,0,58.709,21.117,12.414,12.414,0,0,0,71.5,33.711,12.446,12.446,0,0,0,84.35,21.117c0-7.142-5.525-12.529-12.853-12.529" transform="translate(-33.555 -4.908)"/>
      <path id="Path_326" data-name="Path 326" d="M84.318,30.524a3.164,3.164,0,1,0,3.236,3.155,3.118,3.118,0,0,0-3.236-3.155" transform="translate(-46.351 -17.446)" fill="#27c8e1"/>
      <path id="Path_327" data-name="Path 327" d="M138.083,6.948a1.375,1.375,0,0,0-.32-.77,1.105,1.105,0,0,0-.865-.342H136.3a1.223,1.223,0,0,0-.849.306A1.118,1.118,0,0,0,135.1,7V32.147a1.112,1.112,0,0,0,1.227,1.169h.671a1.094,1.094,0,0,0,1.189-1.169V9.169q0-.587-.029-1.155c-.02-.375-.043-.724-.07-1.066" transform="translate(-77.214 -3.335)" fill="#fff"/>
      <path id="Path_328" data-name="Path 328" d="M152.509,23.929h-.689a1.217,1.217,0,0,0-.858.324,1.162,1.162,0,0,0-.35.865V42.489a1.112,1.112,0,0,0,1.227,1.169h.67a1.094,1.094,0,0,0,1.189-1.169V25.118a1.193,1.193,0,0,0-.314-.848,1.159,1.159,0,0,0-.874-.34" transform="translate(-86.082 -13.677)" fill="#fff"/>
      <path id="Path_329" data-name="Path 329" d="M151.187,10.264a2.05,2.05,0,0,0-1.233.512,2.2,2.2,0,0,0-.744,1.79,2.054,2.054,0,0,0,.511,1.237,2.2,2.2,0,0,0,1.788.744,2.052,2.052,0,0,0,1.24-.512,2.2,2.2,0,0,0,.744-1.791,2.051,2.051,0,0,0-.516-1.24,2.2,2.2,0,0,0-1.789-.739" transform="translate(-85.278 -5.864)" fill="#fff"/>
      <path id="Path_330" data-name="Path 330" d="M173.919,36.111a.305.305,0,0,1-.564,0l-5.267-12.726a1.175,1.175,0,0,0-.455-.526,1.789,1.789,0,0,0-.512-.21,2.308,2.308,0,0,0-.532-.061h-.412a1.207,1.207,0,0,0-.838.3,1.043,1.043,0,0,0-.351.8,1.452,1.452,0,0,0,.027.247.967.967,0,0,0,.069.244l7.508,17.889.024.05a2.2,2.2,0,0,0,.389.539.878.878,0,0,0,.6.242.965.965,0,0,0,.732-.343,1.361,1.361,0,0,0,.285-.43l7.544-17.941a1.152,1.152,0,0,0,.1-.458,1.093,1.093,0,0,0-.35-.807,1.278,1.278,0,0,0-.915-.323,4.428,4.428,0,0,0-.924.1,1.252,1.252,0,0,0-.917.792q-1.36,3.256-2.691,6.465Z" transform="translate(-94.299 -12.91)" fill="#fff"/>
      <path id="Path_331" data-name="Path 331" d="M225.292,28.123a10.127,10.127,0,0,0-2.072-3.186,9.643,9.643,0,0,0-3.053-2.117,9.2,9.2,0,0,0-3.727-.768,9.411,9.411,0,0,0-3.863.807,10.043,10.043,0,0,0-3.147,2.2,10.52,10.52,0,0,0-2.127,3.27,10.344,10.344,0,0,0-.784,4.005,10.06,10.06,0,0,0,.805,4,10.278,10.278,0,0,0,2.2,3.254,10.439,10.439,0,0,0,3.271,2.188,10.128,10.128,0,0,0,4.01.805,9.986,9.986,0,0,0,3.179-.494,11.083,11.083,0,0,0,2.731-1.358,6.735,6.735,0,0,0,.587-.473,2.84,2.84,0,0,0,.542-.647l.069-.114v-.133a1.859,1.859,0,0,0-.139-.674,2.872,2.872,0,0,0-.311-.587,2.581,2.581,0,0,0-.4-.458.969.969,0,0,0-.644-.274l-.087.008a1.764,1.764,0,0,0-.719.356c-.206.154-.393.3-.554.42a6.809,6.809,0,0,1-2,1.029,7.28,7.28,0,0,1-7.145-1.527,7.043,7.043,0,0,1-1.56-2.063,6.669,6.669,0,0,1-.513-1.379.545.545,0,0,1,.53-.674h13.929a2.538,2.538,0,0,0,1.135-.232,1.236,1.236,0,0,0,.629-1.225,10.292,10.292,0,0,0-.764-3.967m-3.069,2.567H210.46a.542.542,0,0,1-.519-.707,7.233,7.233,0,0,1,.506-1.16,7.433,7.433,0,0,1,1.519-1.952,6.891,6.891,0,0,1,2.051-1.289,6.426,6.426,0,0,1,4.8.008,6.748,6.748,0,0,1,3.472,3.24A6.967,6.967,0,0,1,222.747,30a.542.542,0,0,1-.524.687" transform="translate(-118.036 -12.604)" fill="#fff"/>
    </g>
  </g>
</svg>
